<?xml version="1.0" standalone="no"?>
<!DOCTYPE svg PUBLIC "-//W3C//DTD SVG 20010904//EN"
 "http://www.w3.org/TR/2001/REC-SVG-20010904/DTD/svg10.dtd">
<svg version="1.0" xmlns="http://www.w3.org/2000/svg"
 width="700.000000pt" height="700.000000pt" viewBox="0 0 700.000000 700.000000"
 preserveAspectRatio="xMidYMid meet">
<metadata>
Created by potrace 1.14, written by Peter Selinger 2001-2017
</metadata>
<g transform="translate(0.000000,700.000000) scale(0.100000,-0.100000)"
fill="#000000" stroke="none">
<path d="M5020 6952 c-124 -47 -221 -138 -352 -327 -99 -144 -205 -398 -234
-558 -2 -17 -7 -33 -9 -36 -2 -4 -6 -27 -10 -51 -3 -25 -8 -52 -10 -60 -4 -15
-13 -90 -21 -170 -2 -25 -7 -72 -10 -105 -5 -56 -6 -536 -1 -654 l2 -54 -80 4
c-145 6 -588 4 -680 -4 -508 -45 -858 -190 -1141 -472 -223 -223 -352 -477
-423 -835 -31 -157 -38 -204 -48 -344 -9 -121 -8 -474 0 -613 l7 -112 -77 6
c-112 9 -553 8 -653 -1 -151 -13 -212 -20 -275 -32 -11 -2 -45 -8 -75 -14
-245 -45 -537 -175 -709 -315 -174 -142 -220 -233 -183 -362 41 -144 196 -219
340 -165 l50 19 633 -633 633 -633 -17 -35 c-59 -126 -2 -280 126 -339 64 -30
124 -33 191 -11 94 31 234 199 336 404 36 72 114 271 125 320 2 8 15 61 30
118 27 110 59 286 72 399 8 70 10 564 3 663 l-4 55 384 1 c212 1 399 4 415 7
17 2 59 8 95 12 36 4 67 8 70 10 3 2 28 6 55 9 42 6 94 18 255 61 111 29 279
109 405 191 248 163 416 366 548 664 27 59 80 230 93 295 57 287 68 426 65
780 -1 138 -3 272 -4 300 l-2 50 75 -4 c121 -8 567 -6 665 3 191 15 332 39
470 77 39 11 77 22 85 24 8 2 54 19 102 38 185 73 344 176 482 310 128 125
164 203 157 343 0 17 -15 52 -33 79 -72 109 -235 126 -371 38 l-27 -18 -634
634 -634 634 34 66 c74 147 48 273 -70 333 -56 29 -156 33 -216 10z m1305
-1857 c-64 -48 -249 -122 -385 -154 l-85 -20 -467 468 c-258 257 -468 474
-468 482 0 25 49 205 69 257 23 58 76 165 99 200 15 23 21 18 636 -597 590
-590 620 -621 601 -636z m-1098 97 c162 -162 292 -296 289 -299 -12 -12 -601
-1 -614 12 -6 6 -11 106 -17 365 l-7 265 27 -25 c15 -14 160 -157 322 -318z
m-968 -766 c80 -3 146 -8 147 -9 12 -12 28 -663 17 -681 -3 -4 -163 149 -354
340 l-349 349 52 5 c66 6 298 4 487 -4z m117 -1046 c-24 -128 -114 -338 -181
-425 -15 -19 -44 9 -640 605 l-625 625 28 22 c68 55 233 128 367 163 l70 18
493 -491 c431 -430 492 -495 488 -517z m-996 -4 c341 -341 619 -621 617 -622
-27 -23 -145 -90 -200 -113 -96 -39 -246 -83 -266 -76 -28 9 -983 973 -976
984 3 6 8 24 11 39 8 49 56 185 90 258 34 70 92 159 99 152 3 -1 283 -282 625
-622z m-521 -508 c300 -301 339 -344 319 -349 -52 -12 -633 2 -647 17 -3 2 -6
24 -8 47 -6 77 -16 627 -11 627 2 0 158 -154 347 -342z m-828 -825 c15 -15 34
-583 20 -583 -3 0 -141 136 -306 302 l-300 300 289 -5 c159 -3 293 -10 297
-14z m-458 -469 l455 -455 -20 -92 c-23 -105 -76 -255 -121 -340 l-31 -58
-613 613 c-337 337 -613 615 -613 618 0 10 162 87 230 110 58 19 217 57 246
59 6 1 216 -204 467 -455z"/>
</g>
</svg>
